<svg width="52" height="32" viewBox="0 0 52 32" fill="none"
    xmlns="http://www.w3.org/2000/svg">
    <path d="M18.7564 10.0463L18.7544 10.045C14.6117 7.42423 9.26622 7.31122 7.50274 7.3543C7.46177 9.06626 7.56829 14.1739 9.99824 18.2452C10.8051 18.0911 11.6247 18.0128 12.4463 18.0114C18.103 18.0114 22.8737 21.8416 25.0544 23.9305C25.0578 23.6967 25.0647 23.4427 25.0768 23.1709C24.929 20.1945 24.1581 15.0175 20.7874 11.6571C20.1719 11.0474 19.4907 10.5072 18.7564 10.0463Z" fill="#826B5A"/>
    <path d="M41.5158 18.2447C43.9505 14.1668 44.0541 9.06639 44.0117 7.35432C42.272 7.31359 37.0392 7.42604 32.9226 9.94362C32.8391 10.0373 32.7308 10.1056 32.6101 10.1408C31.9314 10.5797 31.3002 11.0875 30.7266 11.6561C27.356 15.0165 26.585 20.1935 26.4372 23.1699C26.4484 23.4414 26.4559 23.6958 26.4596 23.9292C28.6403 21.8407 33.4105 18.0101 39.0678 18.0101C39.8893 18.0118 40.7089 18.0904 41.5158 18.2447Z" fill="#826B5A"/>
    <path d="M31.6382 9.16892C30.3976 4.7137 26.9743 1.15742 25.7569 0C24.539 1.1573 21.1152 4.7137 19.8748 9.1687C20.5425 9.62307 21.1668 10.138 21.7395 10.7069C23.9332 12.8938 25.1211 15.7074 25.7569 18.2998C26.3927 15.7074 27.5807 12.8938 29.7744 10.7069C30.3468 10.1381 30.9707 9.62325 31.6382 9.16892Z" fill="#A49386"/>
    <path d="M48.0953 22.7037C45.9776 21.1756 42.6923 19.354 39.0675 19.354C37.0669 19.354 33.8767 19.9352 30.0399 22.7037C28.8135 23.5908 27.6694 24.5857 26.6212 25.6765C27.6693 26.7672 28.8133 27.7621 30.0396 28.6493C32.1573 30.1774 35.4425 31.999 39.0672 31.999C41.074 31.999 44.2738 31.4145 48.1214 28.6301C49.338 27.7483 50.4733 26.7599 51.5136 25.6768C50.4656 24.586 49.3215 23.591 48.0953 22.7037Z" fill="#8C6546"/>
    <path d="M21.4739 22.7037C19.3562 21.1756 16.071 19.354 12.4463 19.354C11.5774 19.3584 10.7117 19.4583 9.86481 19.652C9.84012 19.659 9.81505 19.6646 9.78972 19.6688C8.01008 20.0773 5.83166 20.9575 3.39216 22.7234C2.17553 23.6055 1.0403 24.5941 0 25.6774C1.04819 26.7682 2.19232 27.7632 3.41865 28.6504C5.53636 30.1785 8.82167 32.0001 12.4464 32.0001C14.447 32.0001 17.6373 31.4189 21.474 28.6504C22.7004 27.7629 23.8445 26.7676 24.8927 25.6765C23.8445 24.5857 22.7003 23.5908 21.4739 22.7037Z" fill="#8C6546"/>
</svg>
