<svg viewBox="0 0 223 52" fill="none" class="xl:hidden"
    xmlns="http://www.w3.org/2000/svg">
    <rect x="-0.5" y="9.5" width="2" height="33" fill="#787878"/>
    <rect x="3.5" y="11.5" width="2" height="29" fill="#787878"/>
    <rect x="7.5" y="9.5" width="2" height="33" fill="#787878"/>
    <rect x="11.5" y="8.5" width="2" height="35" fill="#787878"/>
    <rect x="15.5" y="11.5" width="2" height="29" fill="#787878"/>
    <rect x="19.5" y="6.5" width="2" height="39" fill="#787878"/>
    <rect x="23.5" y="10.5" width="2" height="31" fill="#787878"/>
    <rect x="27.5" y="13" width="2" height="26" fill="#787878"/>
    <rect x="31.5" y="6.5" width="2" height="39" fill="#787878"/>
    <rect x="35.5" y="14" width="2" height="24" fill="#787878"/>
    <rect x="39.5" y="6.5" width="2" height="39" fill="#787878"/>
    <rect x="43.5" y="8.5" width="2" height="35" fill="#787878"/>
    <rect x="47.5" y="10.5" width="2" height="31" fill="#787878"/>
    <rect x="51.5" y="10.5" width="2" height="31" fill="#787878"/>
    <rect x="55.5" y="6.5" width="2" height="39" fill="#787878"/>
    <rect x="59.5" y="11.5" width="2" height="29" fill="#787878"/>
    <rect x="63.5" y="11.5" width="2" height="29" fill="#787878"/>
    <rect x="67.5" y="3.5" width="2" height="45" fill="#787878"/>
    <rect x="71.5" y="10.5" width="2" height="31" fill="#787878"/>
    <rect x="75.5" y="8.5" width="2" height="35" fill="#787878"/>
    <rect x="79.5" y="11.5" width="2" height="29" fill="#787878"/>
    <rect x="83.5" y="8.5" width="2" height="35" fill="#787878"/>
    <rect x="87.5" y="18.5" width="2" height="15" fill="#787878"/>
    <rect x="91.5" y="9.5" width="2" height="33" fill="#787878"/>
    <rect x="95.5" y="18.5" width="2" height="15" fill="#787878"/>
    <rect x="99.5" y="11.5" width="2" height="29" fill="#787878"/>
    <rect x="103.5" y="9.5" width="2" height="33" fill="#787878"/>
    <rect x="107.5" y="11.5" width="2" height="29" fill="#787878"/>
    <rect x="111.5" y="9.5" width="2" height="33" fill="#787878"/>
    <rect x="115.5" y="8.5" width="2" height="35" fill="#787878"/>
    <rect x="119.5" y="11.5" width="2" height="29" fill="#787878"/>
    <rect x="123.5" y="6.5" width="2" height="39" fill="#787878"/>
    <rect x="127.5" y="10.5" width="2" height="31" fill="#787878"/>
    <rect x="131.5" y="13" width="2" height="26" fill="#787878"/>
    <rect x="135.5" y="6.5" width="2" height="39" fill="#787878"/>
    <rect x="139.5" y="14" width="2" height="24" fill="#787878"/>
    <rect x="143.5" y="6.5" width="2" height="39" fill="#787878"/>
    <rect x="147.5" y="8.5" width="2" height="35" fill="#787878"/>
    <rect x="151.5" y="10.5" width="2" height="31" fill="#787878"/>
    <rect x="155.5" y="10.5" width="2" height="31" fill="#787878"/>
    <rect x="159.5" y="6.5" width="2" height="39" fill="#787878"/>
    <rect x="163.5" y="11.5" width="2" height="29" fill="#787878"/>
    <rect x="167.5" y="11.5" width="2" height="29" fill="#787878"/>
    <rect x="171.5" y="3.5" width="2" height="45" fill="#787878"/>
    <rect x="175.5" y="10.5" width="2" height="31" fill="#787878"/>
    <rect x="179.5" y="8.5" width="2" height="35" fill="#787878"/>
    <rect x="183.5" y="11.5" width="2" height="29" fill="#787878"/>
    <rect x="187.5" y="8.5" width="2" height="35" fill="#787878"/>
    <rect x="191.5" y="18.5" width="2" height="15" fill="#787878"/>
    <rect x="195.5" y="9.5" width="2" height="33" fill="#787878"/>
    <rect x="199.5" y="18.5" width="2" height="15" fill="#787878"/>
    <rect x="203.5" y="11.5" width="2" height="29" fill="#787878"/>
    <rect x="207.5" y="8.5" width="2" height="35" fill="#787878"/>
    <rect x="211.5" y="11.5" width="2" height="29" fill="#787878"/>
    <rect x="215.5" y="8.5" width="2" height="35" fill="#787878"/>
    <rect x="219.5" y="18.5" width="2" height="15" fill="#787878"/>
</svg>
